<?xml version="1.0" encoding="utf-8"?>
<!-- Generator: Adobe Illustrator 19.2.1, SVG Export Plug-In . SVG Version: 6.00 Build 0)  -->
<svg version="1.1" id="Layer_2" xmlns="http://www.w3.org/2000/svg" xmlns:xlink="http://www.w3.org/1999/xlink" x="0px" y="0px"
	 viewBox="0 0 72 72" style="enable-background:new 0 0 72 72;" xml:space="preserve">
<style type="text/css">
	.st0{fill:#FFFFFF;stroke:#FF0000;stroke-miterlimit:10;}
</style>
<g id="vf6kr5.tif">
	<g>
		<path class="st0" d="M56.2,69.6c-13.5,0-26.9,0-40.4,0c0-15,0-38,0-52.9c13.5,0,26.9,0,40.4,0C56.2,31.8,56.2,54.7,56.2,69.6z"/>
		<path class="st0" d="M2.4,23.1c0-0.4,0.1-0.7,0.1-1c0.7-2.6,2.9-4.7,5.5-5.2c0.4,0,0.8-0.1,1.2-0.1c1.4,0,2,0,3.4,0h0.1v0.1
			c0,14.8,0,37.7,0,52.7v0.1c-1.7,0-2.3,0-4,0H8.5c-0.5,0-1-0.1-1.6-0.4c-2.3-0.9-3.9-2.6-4.4-5.1c0,0-0.1-0.4-0.1-0.7
			C2.4,52.6,2.4,33.9,2.4,23.1z"/>
		<path class="st0" d="M59.4,69.6c0-0.1,0-0.1,0-0.3c0-14.8,0-37.7,0-52.5c0-0.1,0-0.1,0-0.3h0.1c1.4,0,2.2,0,3.6,0
			c3.1,0,5.7,2.2,6.4,5.2c0.1,0.4,0.1,0.7,0.1,1c0,10.8,0,29.7,0,40.4v0.1c-0.1,0.9-0.3,1.7-0.8,2.5c-1,2-2.6,3.1-4.7,3.5
			c-0.3,0-0.5,0.1-0.8,0.1C61.8,69.6,60.9,69.6,59.4,69.6z"/>
		<path class="st0" d="M41.5,2.5c0.3,0,0.5,0.1,0.8,0.1c2.1,0.5,3.6,2.2,3.9,4.4c0,0.1,0,0.4,0,0.5c0,1,0,5.5,0,6.5v0.1
			c-1.2,0-2.2,0-3.4,0c0-0.1,0-0.1,0-0.1c0-1,0-5.5,0-6.5S42.1,5.8,41,5.8c-3.3,0-6.6,0-9.9,0c-1,0-1.8,0.7-1.8,1.8c0,1,0,5.5,0,6.5
			v0.1c-1.2,0-2.2,0-3.4,0v-0.1c0-1,0-5.5,0-6.5c0-2.5,1.7-4.6,4.2-5.1c0.1,0,0.4,0,0.5-0.1C34.3,2.5,37.9,2.5,41.5,2.5z"/>
	</g>
</g>
</svg>
