<?xml version="1.0" encoding="utf-8"?>
<!-- Generator: Adobe Illustrator 19.2.1, SVG Export Plug-In . SVG Version: 6.00 Build 0)  -->
<svg version="1.1" id="Layer_2" xmlns="http://www.w3.org/2000/svg" xmlns:xlink="http://www.w3.org/1999/xlink" x="0px" y="0px"
	 viewBox="0 0 72 72" style="enable-background:new 0 0 72 72;" xml:space="preserve">
<style type="text/css">
	.st0{fill:#FFFFFF;stroke:#FF0000;stroke-miterlimit:10;}
	.st1{fill:#FF0000;stroke:#FF0000;stroke-miterlimit:10;}
</style>
<g>
	<path class="st0" d="M6,54.8c0,0-1.6-20.5,14.4-30.9c7.3-4.7,16.3-5.8,24.4-3.2c22.1,7.1,21,34.1,21,34.1H6z"/>
	<path class="st1" d="M11.9,49.5c0.5-4.7,3.3-17.8,14.7-25.3c0.9-0.6,1.7,0.7,1,1.4c-9.3,9.6-11.3,18.9-11.6,23.5
		c-0.1,1.5-1.4,2.7-2.8,2.5l0,0C12.5,51.5,11.7,50.5,11.9,49.5z"/>
	<path class="st0" d="M29.9,18.1c0,0-0.4-6.9,6-7.2c6.4-0.2,6.3,7.2,6.3,7.2l-3.8-0.5c0,0,0.5-3.3-2.5-3.3s-2.2,3.3-2.2,3.3
		L29.9,18.1z"/>
	<path class="st0" d="M69.4,61.1H2.6c-1.1,0-2-0.9-2-2.1l0,0c0-1.2,0.9-2.1,2-2.1h66.7c1.1,0,2,0.9,2,2.1l0,0
		C71.3,60.2,70.5,61.1,69.4,61.1z"/>
</g>
</svg>
