<?xml version="1.0" encoding="utf-8"?>
<!-- Generator: Adobe Illustrator 19.2.1, SVG Export Plug-In . SVG Version: 6.00 Build 0)  -->
<svg version="1.1" id="Layer_1" xmlns="http://www.w3.org/2000/svg" xmlns:xlink="http://www.w3.org/1999/xlink" x="0px" y="0px"
	 viewBox="0 0 72 72" style="enable-background:new 0 0 72 72;" xml:space="preserve">
<style type="text/css">
	.st0{fill:#FFFFFF;}
	.st1{fill:#FF0000;}
</style>
<g>
	<path class="st0" d="M39.6,72C26.4,72,13.2,72,0,72C0,48,0,24,0,0c24,0,48,0,72,0c0,24,0,48,0,72c-6.6,0-13.1,0-19.7,0
		c0-0.5,0-1,0-1.4c0-8.5,0-17,0-25.4c0-0.5,0-0.9,0-1.5c2.9,0,5.6,0,8.4,0c0.4-3.6,0.7-7,1.1-10.6c-3.3,0-6.3,0-9.5,0
		c0-2.1-0.1-4.1,0-6c0.1-2.2,0.9-3.1,3.2-3.1c1.6-0.1,3.1-0.1,4.7,0c1.1,0.1,1.6-0.2,1.5-1.4c-0.1-2,0-4.1,0-6.1c0-1,0-2,0-3.1
		c-3.4,0-6.6,0-9.9,0c-0.9,0-1.8,0.1-2.7,0.3c-5.2,0.9-8.4,4.1-9.1,9.4c-0.4,2.8-0.3,5.6-0.4,8.4c-0.1,1.8,0,1.8-1.8,1.8
		c-1.2,0-2.3,0-3.5,0c-0.7,0-0.9,0.2-0.9,0.9c0,2.9,0,5.8,0,8.8c0,0.8,0.3,0.9,1,0.9c1.4,0,2.7,0,4.1,0c0.9,0,1.2,0.3,1.2,1.2
		c0,2.9,0,5.8,0,8.6C39.6,59.6,39.6,65.8,39.6,72z"/>
	<path class="st1" d="M39.6,72c0-6.2,0-12.4,0-18.6c0-2.9,0-5.8,0-8.6c0-0.9-0.3-1.2-1.2-1.2c-1.4,0.1-2.7,0-4.1,0
		c-0.7,0-1-0.2-1-0.9c0-2.9,0-5.8,0-8.8c0-0.7,0.3-0.9,0.9-0.9c1.2,0,2.3,0,3.5,0c1.8,0,1.8,0,1.8-1.8c0.1-2.8,0-5.6,0.4-8.4
		c0.7-5.3,3.9-8.5,9.1-9.4c0.9-0.2,1.8-0.3,2.7-0.3c3.2,0,6.5,0,9.9,0c0,1.1,0,2.1,0,3.1c0,2-0.1,4.1,0,6.1c0.1,1.2-0.4,1.5-1.5,1.4
		c-1.6-0.1-3.1,0-4.7,0c-2.3,0.1-3.1,0.9-3.2,3.1c-0.1,2,0,3.9,0,6c3.1,0,6.2,0,9.5,0c-0.4,3.6-0.7,7.1-1.1,10.6c-2.8,0-5.5,0-8.4,0
		c0,0.6,0,1.1,0,1.5c0,8.5,0,17,0,25.4c0,0.5,0,1,0,1.4C48.1,72,43.8,72,39.6,72z"/>
</g>
</svg>
