<?xml version="1.0" encoding="utf-8"?>
<!-- Generator: Adobe Illustrator 19.2.1, SVG Export Plug-In . SVG Version: 6.00 Build 0)  -->
<svg version="1.1" id="Layer_2" xmlns="http://www.w3.org/2000/svg" xmlns:xlink="http://www.w3.org/1999/xlink" x="0px" y="0px"
	 viewBox="0 0 72 72" style="enable-background:new 0 0 72 72;" xml:space="preserve">
<style type="text/css">
	.st0{fill:#FFFFFF;stroke:#FF0000;stroke-miterlimit:10;}
</style>
<g id="dcyIjq.tif">
	<g>
		<path class="st0" d="M55.9,44.2c-2.6,0-5.1,0-7.4,0v-2.3c0-21.6,0-7.1,0-28.7c0-6.3,3.4-10.8,8.8-11.7c5.7-1.1,11.1,2,12.5,7.7
			c0.3,1.1,0.3,2.6,0.3,4c0,37.2,0,12.2,0,49.5c0,5.1-2.6,8.2-7.1,8c-3.4,0-6-2-6.5-5.7c-0.3-1.4-0.3-2.6-0.3-4.3L55.9,44.2
			C55.9,44.2,55.9,45.6,55.9,44.2z"/>
		<path class="st0" d="M15.2,19.2c1.4,0,2.3,0,4,0c0-1.1,0-2.3,0-3.7c0-8,0-1.7,0-10.2c0-1.7,0.3-3.7,2.3-3.7c2.3,0,2.6,1.7,2.6,3.7
			c0,8.2,0,2.3,0,10.5c0,1.1,0,2,0,3.4c1.4,0,2.3,0,4,0c0-0.9,0-1.7,0-3.1c0-8.2,0-2.6,0-10.5c0-1.7,0.3-4,2.3-4c2.6,0,2.6,2,2.6,4
			c0,12.5,0,11.1,0,23.6c0,4.8-2.3,8.2-7.1,9.7c-2,0.6-1.7,1.7-1.7,3.1c0,22.5,0-2.8,0,19.6c0,1.4,0,2.6-0.6,4.3
			c-0.9,3.4-4.3,5.1-7.1,4.8c-3.4-0.3-6-2.6-6.3-6c-0.3-1.1-0.3-2.6-0.3-4c0-22.2,0,3.7,0-18.5c0-2-0.3-3.4-2.6-4
			C3.3,37.4,1,34,1,30C1,16.9,1,18.1,1,4.4C1,2.7,1.6,1,3.6,1s2.6,1.7,2.6,3.7c0,8.2,0,2.3,0,10.5c0,1.1,0,2,0,3.7
			c1.1,0,2.3,0,3.7,0c0-0.9,0-2,0-3.1c0-8,0-1.7,0-10.2c0-2-0.3-4.3,2.6-4.3c2.6,0,2.6,2.3,2.6,4.5c0,8,0,1.4,0,9.7
			C15.2,16.9,15.2,18.1,15.2,19.2z"/>
	</g>
</g>
</svg>
