<?xml version="1.0" encoding="utf-8"?>
<!-- Generator: Adobe Illustrator 19.2.1, SVG Export Plug-In . SVG Version: 6.00 Build 0)  -->
<svg version="1.1" id="Layer_1" xmlns="http://www.w3.org/2000/svg" xmlns:xlink="http://www.w3.org/1999/xlink" x="0px" y="0px"
	 viewBox="0 0 256 256" style="enable-background:new 0 0 256 256;" xml:space="preserve">
<style type="text/css">
	.st0{fill:#FFFFFF;}
</style>
<path class="st0" d="M187.1,213.4L43.5,69.8c-7-7-7-18.4,0-25.4l0,0c7-7,18.4-7,25.4,0L212.5,188c7,7,7,18.4,0,25.4l0,0
	C205.5,220.4,194.1,220.4,187.1,213.4z M212.5,70L68.9,213.6c-7,7-18.4,7-25.4,0l0,0c-7-7-7-18.4,0-25.4L187.1,44.6
	c7-7,18.4-7,25.4,0l0,0C219.5,51.6,219.5,63,212.5,70z"/>
</svg>
