<?xml version="1.0" encoding="utf-8"?>
<!-- Generator: Adobe Illustrator 19.2.1, SVG Export Plug-In . SVG Version: 6.00 Build 0)  -->
<svg version="1.1" id="Layer_1" xmlns="http://www.w3.org/2000/svg" xmlns:xlink="http://www.w3.org/1999/xlink" x="0px" y="0px"
	 viewBox="0 0 72 72" style="enable-background:new 0 0 72 72;" xml:space="preserve">
<style type="text/css">
	.st0{fill:#FFFFFF;}
	.st1{fill:#FF0000;}
	.st2{font-family:'Futura-Light';}
	.st3{font-size:18px;}
</style>
<rect class="st0" width="72" height="72"/>
<g id="_x39_WPJxB.tif">
	<g>
		<path class="st1" d="M36,5.8C36,5.8,36,5.8,36,5.8c0.1,0.1,0.1,0.1,0.2,0.2c2.8,3.2,5.6,6.5,8.4,9.7c4.1,4.7,8.1,9.4,12.2,14.1
			c0,0,0.1,0.1,0.2,0.2c-4.4,0-8.9,0-13.3,0c0,5.9,0,11.8,0,17.6c-4.8,0-9.5,0-14.3,0c0-0.1,0-0.1,0-0.2c0-5.7,0-11.5,0-17.2
			c0-0.1,0-0.1,0-0.2c-4.7,0-9.4,0-14.2,0c0.1-0.1,0.2-0.2,0.2-0.3c1.6-1.8,3.1-3.6,4.7-5.4c4.8-5.5,9.6-11.1,14.4-16.6
			C34.9,7,35.5,6.4,36,5.8z"/>
	</g>
</g>
<text transform="matrix(1 0 0 1 20.714 66.3113)" class="st1 st2 st3">TOP</text>
</svg>
